<svg width="200" height="23" viewBox="0 0 200 23" fill="none" xmlns="http://www.w3.org/2000/svg">
<path d="M15.5053 22.6923L13.1504 11.9487H13.0446L10.6897 22.6923H4.25999L0 5.05128H6.08571L8.17601 15.0513H8.28185L10.3457 5.05128H16.1139L18.31 15.0513H18.4159L20.3739 5.05128H26.195L21.935 22.6923H15.5053Z" fill="#313131"/>
<path d="M39.2925 3.71795L37.3345 1.74359L35.35 3.71795H31.9632L35.6675 0H39.0279L42.7322 3.71795H39.2925ZM46.4101 15.5897C46.4101 18 45.6252 19.8376 44.0552 21.1026C42.4853 22.3675 40.2539 23 37.3609 23C34.468 23 32.2278 22.3675 30.6402 21.1026C29.0703 19.8376 28.2853 18 28.2853 15.5897V5.05128H34.1329V15.5128C34.1329 16.5043 34.4063 17.2991 34.9531 17.8974C35.5 18.4786 36.2937 18.7692 37.3345 18.7692C38.3752 18.7692 39.169 18.4701 39.7158 17.8718C40.2803 17.2735 40.5626 16.4872 40.5626 15.5128V5.05128H46.4101V15.5897Z" fill="#313131"/>
<path d="M63.3445 22.6923L55.6976 14.1282V22.6923H50.3263V5.05128H55.4331L63.0799 13.7436V5.05128H68.4512V22.6923H63.3445Z" fill="#313131"/>
<path d="M80.2524 5.05128C86.6203 5.05128 89.8043 7.99145 89.8043 13.8718C89.8043 19.7521 86.6203 22.6923 80.2524 22.6923H72.3674V5.05128H80.2524ZM78.215 18.4615H80.1465C82.5984 18.4615 83.8244 17.188 83.8244 14.641V13.1026C83.8244 10.5556 82.5984 9.28205 80.1465 9.28205H78.215V18.4615Z" fill="#313131"/>
<path d="M92.9614 5.05128H108.705V9.28205H98.809V11.7179H107.276V15.7692H98.809V18.4615H108.89V22.6923H92.9614V5.05128Z" fill="#313131"/>
<path d="M129.335 10.4615C129.335 11.5385 129.035 12.5128 128.435 13.3846C127.836 14.2564 126.962 14.8974 125.816 15.3077L129.864 22.6923H123.302L120.074 16.2564H117.904V22.6923H112.057V5.05128H123.196C124.502 5.05128 125.613 5.29915 126.53 5.79487C127.465 6.2735 128.162 6.93162 128.62 7.76923C129.097 8.58974 129.335 9.48718 129.335 10.4615ZM123.381 10.6923C123.381 10.2308 123.223 9.84615 122.905 9.53846C122.588 9.23077 122.2 9.07692 121.741 9.07692H117.904V12.3333H121.741C122.2 12.3333 122.588 12.1795 122.905 11.8718C123.223 11.547 123.381 11.1538 123.381 10.6923Z" fill="#313131"/>
<path d="M140.324 18.4615H148.976V22.6923H131.328V20.8718L139.768 9.28205H131.963V5.05128H148.765V6.8718L140.324 18.4615Z" fill="#313131"/>
<path d="M152.011 22.6923V5.05128H157.858V22.6923H152.011Z" fill="#313131"/>
<path d="M175.048 22.6923L167.402 14.1282V22.6923H162.03V5.05128H167.137L174.784 13.7436V5.05128H180.155V22.6923H175.048Z" fill="#313131"/>
<path d="M184.071 5.05128H199.815V9.28205H189.919V11.7179H198.386V15.7692H189.919V18.4615H200V22.6923H184.071V5.05128Z" fill="#313131"/>
</svg>
