<svg width="220" height="24" viewBox="0 0 220 24" fill="none" xmlns="http://www.w3.org/2000/svg">
<path d="M16.2806 23.6789L13.8079 12.4682H13.6968L11.2242 23.6789H4.47299L0 5.2709H6.38999L8.58481 15.7057H8.69594L10.863 5.2709H16.9196L19.2255 15.7057H19.3367L21.3926 5.2709H27.5047L23.0318 23.6789H16.2806Z" fill="#313131"/>
<path d="M46.2571 3.8796L44.2012 1.8194L42.1175 3.8796H38.5613L42.4509 0H45.9793L49.8689 3.8796H46.2571ZM58.7306 16.2676C58.7306 18.7826 57.9064 20.7001 56.258 22.0201C54.6096 23.34 47.2666 24 44.229 24C41.1914 24 33.8392 23.34 32.1722 22.0201C30.5238 20.7001 29.6996 18.7826 29.6996 16.2676V5.2709H35.8395V16.1873C35.8395 17.2218 36.1266 18.0513 36.7008 18.6756C37.2749 19.2821 43.1084 19.5853 44.2012 19.5853C45.294 19.5853 51.1275 19.2731 51.7016 18.6488C52.2943 18.0245 52.5907 17.204 52.5907 16.1873V5.2709H58.7306V16.2676Z" fill="#313131"/>
<path d="M76.5117 23.6789L68.4825 14.7425V23.6789H62.8427V5.2709H68.2047L76.2339 14.3411V5.2709H81.8737V23.6789H76.5117Z" fill="#313131"/>
<path d="M94.265 5.2709C100.951 5.2709 104.294 8.33891 104.294 14.4749C104.294 20.6109 100.951 23.6789 94.265 23.6789H85.9858V5.2709H94.265ZM92.1257 19.2642H94.1538C96.7284 19.2642 98.0156 17.9353 98.0156 15.2776V13.6722C98.0156 11.0145 96.7284 9.68562 94.1538 9.68562H92.1257V19.2642Z" fill="#313131"/>
<path d="M107.61 5.2709H124.14V9.68562H113.749V12.2274H122.64V16.4548H113.749V19.2642H124.335V23.6789H107.61V5.2709Z" fill="#313131"/>
<path d="M145.802 10.9164C145.802 12.0401 145.487 13.0569 144.857 13.9666C144.227 14.8763 143.31 15.5451 142.107 15.9732L146.357 23.6789H139.467L136.078 16.9632H133.8V23.6789H127.66V5.2709H139.356C140.727 5.2709 141.894 5.52954 142.857 6.04682C143.838 6.54627 144.57 7.233 145.052 8.10702C145.552 8.96321 145.802 9.89966 145.802 10.9164ZM139.551 11.1572C139.551 10.6756 139.384 10.2742 139.05 9.95318C138.717 9.63211 138.31 9.47157 137.828 9.47157H133.8V12.8696H137.828C138.31 12.8696 138.717 12.709 139.05 12.388C139.384 12.0491 139.551 11.6388 139.551 11.1572Z" fill="#313131"/>
<path d="M157.34 19.2642H166.425V23.6789H147.894V21.7793L156.757 9.68562H148.561V5.2709H166.203V7.17057L157.34 19.2642Z" fill="#313131"/>
<path d="M169.611 23.6789V5.2709H175.751V23.6789H169.611Z" fill="#313131"/>
<path d="M193.801 23.6789L185.772 14.7425V23.6789H180.132V5.2709H185.494L193.523 14.3411V5.2709H199.163V23.6789H193.801Z" fill="#313131"/>
<path d="M203.275 5.2709H219.806V9.68562H209.415V12.2274H218.305V16.4548H209.415V19.2642H220V23.6789H203.275V5.2709Z" fill="#313131"/>
</svg>
